<?xml version="1.0" encoding="UTF-8"?><svg id="a" xmlns="http://www.w3.org/2000/svg" width="3.9999717cm" height="3.9999999cm" viewBox="0 0 113.3850272 113.3858268"><path d="M56.6924648,96.3780873H16.2059385c10.2892329,10.4958476,24.6274114,17.0077394,40.4865262,17.0077394,4.6965484,0,8.5038941-3.8072969,8.5038941-8.5038697,0-4.6965484-3.8073458-8.5038697-8.5038941-8.5038697Z" style="fill:#e62b43; stroke-width:0px;"/><path d="M43.9371363,72.2837608l-41.7665464-.0001709c1.7587765,6.1623094,4.5340495,11.8959108,8.1329495,17.0079103l33.6335968.0000244c4.6965972,0,8.5038941-3.8073213,8.5038941-8.5038941,0-4.6965484-3.8072969-8.5038697-8.5038941-8.5038697Z" style="fill:#f08029; stroke-width:0px;"/><path d="M79.3704272,48.1889216l-78.7369357-.0001953c-.4172333,2.7739059-.6334916,5.6136561-.6334916,8.5039185,0,2.890409.216307,5.7303056.6335892,8.5043824l78.736838-.0003662c4.6965484,0,8.5038453-3.8073213,8.5038453-8.5038697,0-4.6965728-3.8072969-8.5038697-8.5038453-8.5038697Z" style="fill:#f7a82d; stroke-width:0px;"/><path d="M93.5425913.0000732l-36.8501265-.0000732c-15.8576988,0-30.1948031,6.5107688-40.4838407,17.0049807l77.3339672.0028564c4.6965484,0,8.5038941-3.8073213,8.5038941-8.5038697C102.0464854,3.8073946,98.2391397.0000732,93.5425913.0000732Z" style="fill:#0f8c87; stroke-width:0px;"/><path d="M104.8810843,24.0943998v.000415l-94.5794979-.000415c-3.5988512,5.1118286-6.3738801,10.8454057-8.1321683,17.0077638l102.7116662-.0041504v.0041259c4.6965484,0,8.503943-3.8072969,8.503943-8.5038697s-3.8073946-8.5038697-8.503943-8.5038697Z" style="fill:#9bb042; stroke-width:0px;"/></svg>